#define sample_width 38
#define sample_height 64
static char sample_bits[] = {
  0xB8, 0x38, 0x0C, 0x1E, 0x30, 0xFA, 0x38, 0x0E, 0x0F, 0x38, 0xBA, 0x19, 
  0x87, 0x07, 0x1C, 0xB0, 0x81, 0x83, 0x00, 0x04, 0x30, 0xC3, 0x00, 0x00, 
  0x02, 0x00, 0x66, 0x0C, 0x00, 0x01, 0x00, 0x7C, 0x0C, 0x00, 0x00, 0x00, 
  0x38, 0x0C, 0x00, 0x00, 0x11, 0x70, 0x1E, 0x00, 0x00, 0x20, 0xFC, 0x1F, 
  0x00, 0x00, 0xCC, 0xFC, 0x3F, 0x02, 0x04, 0xD8, 0xFF, 0x3F, 0x03, 0x02, 
  0xE0, 0xFF, 0xFF, 0x83, 0x01, 0x00, 0xFE, 0xFF, 0xCF, 0x00, 0x02, 0xFC, 
  0xFF, 0x3F, 0x00, 0x00, 0xF8, 0x0F, 0x5C, 0x00, 0x40, 0x78, 0x00, 0x70, 
  0x00, 0x20, 0x38, 0x00, 0xF0, 0x00, 0x00, 0x38, 0x00, 0xE0, 0x03, 0x00, 
  0x38, 0x00, 0x20, 0x0F, 0x00, 0x3C, 0x00, 0x00, 0x00, 0x00, 0x3C, 0x00, 
  0x00, 0x00, 0x00, 0x1C, 0x00, 0x00, 0x00, 0x00, 0x0C, 0x00, 0x00, 0x00, 
  0x00, 0x04, 0x00, 0x00, 0x00, 0x00, 0x00, 0x00, 0x00, 0x38, 0x00, 0x00, 
  0x00, 0x00, 0x38, 0x00, 0x00, 0x00, 0x00, 0x30, 0x00, 0x30, 0x00, 0x00, 
  0x30, 0x00, 0x71, 0x00, 0x00, 0x00, 0x00, 0x7B, 0x00, 0x80, 0x3B, 0x00, 
  0xF8, 0xC7, 0xC0, 0x3F, 0x00, 0xFC, 0xFF, 0xE1, 0x3F, 0x00, 0xFF, 0xFF, 
  0xF3, 0x3F, 0x00, 0xFF, 0xFF, 0xFF, 0x3F, 0x80, 0xFF, 0xFF, 0xFF, 0x3F, 
  0x00, 0xFF, 0xFF, 0xFF, 0x3F, 0xC0, 0xFF, 0xFF, 0xFF, 0x3F, 0xA0, 0xFF, 
  0xFF, 0xFF, 0x3F, 0x80, 0xFF, 0xFF, 0xFF, 0x3F, 0x80, 0xFF, 0xFF, 0xFF, 
  0x3F, 0xC0, 0xFF, 0xFF, 0xFF, 0x3F, 0xC0, 0xFF, 0xFF, 0xFF, 0x3F, 0xD0, 
  0xFF, 0xFF, 0xFF, 0x3F, 0xF0, 0xFF, 0xFF, 0xFF, 0x3F, 0xF0, 0xFF, 0xFF, 
  0xFF, 0x3F, 0xF8, 0xFF, 0xFF, 0xFF, 0x3F, 0xFC, 0xFF, 0xFF, 0xFF, 0x3F, 
  0xFE, 0xFF, 0xFF, 0xFF, 0x3F, 0xFE, 0xFF, 0xFF, 0xFF, 0x3F, 0xFE, 0xFF, 
  0xFF, 0xFB, 0x3F, 0xFF, 0xFF, 0xFF, 0xF9, 0x3F, 0xFF, 0xFF, 0xFF, 0xFB, 
  0x3F, 0xFF, 0xFF, 0xFF, 0xFF, 0x03, 0xFF, 0xC1, 0xF7, 0xFF, 0x03, 0xFF, 
  0xC1, 0xFF, 0xFF, 0x03, 0xFF, 0x83, 0xFF, 0xFF, 0x07, 0xFF, 0x95, 0xFF, 
  0xFF, 0x3F, 0xFF, 0xFF, 0x9F, 0xFF, 0x3C, 0xFF, 0xFF, 0x07, 0x1F, 0x20, 
  0xFF, 0xC0, 0x03, 0x0E, 0x00, 0x3F, 0x00, 0x00, 0x0E, 0x00, 0x7F, 0x00, 
  0x00, 0x0A, 0x00, 0x7D, 0x00, 0x00, 0x1B, 0x00, };
