/* XPM */
static const char *sample[] = {
/* columns rows colors chars-per-pixel */
"38 64 229 2 ",
"   c #371D1A",
".  c #1E1F36",
"X  c #1E1F38",
"o  c #291E29",
"O  c #1F2037",
"+  c #1F2038",
"@  c #362C2B",
"#  c #222235",
"$  c #222339",
"%  c #292839",
"&  c #2A2B3E",
"*  c #302D37",
"=  c #39353A",
"-  c #531E04",
";  c #5B2206",
":  c #4B2615",
">  c #4D2B18",
",  c #6F3618",
"<  c #4E3729",
"1  c #443C36",
"2  c #3C4F36",
"3  c #4B4339",
"4  c #514C35",
"5  c #564739",
"6  c #6C4933",
"7  c #784E34",
"8  c #67573D",
"9  c #2C2D41",
"0  c #333446",
"q  c #35364A",
"w  c #393948",
"e  c #473F43",
"r  c #3F404F",
"t  c #4C4445",
"y  c #474348",
"u  c #554C45",
"i  c #564D4D",
"p  c #5B534B",
"a  c #444554",
"s  c #4B4C58",
"d  c #5A5556",
"f  c #665746",
"g  c #6C5D42",
"h  c #775848",
"j  c #675C54",
"k  c #7E5C53",
"l  c #746445",
"z  c #776749",
"x  c #7B6A49",
"c  c #696358",
"v  c #756857",
"b  c #786B53",
"n  c #5A5A65",
"m  c #66646A",
"M  c #766D66",
"N  c #77716B",
"B  c #6C6D75",
"V  c #7A797A",
"C  c #8D5035",
"Z  c #97563C",
"A  c #AD452C",
"S  c #A54834",
"D  c #A2543A",
"F  c #B8553A",
"G  c #CB5339",
"H  c #835B4A",
"J  c #955A43",
"K  c #9B5B43",
"L  c #A75549",
"P  c #A65C48",
"I  c #B65B44",
"U  c #896347",
"Y  c #816E4D",
"T  c #9D6549",
"R  c #84714E",
"E  c #897649",
"W  c #95794A",
"Q  c #886755",
"!  c #966A53",
"~  c #867350",
"^  c #897551",
"/  c #8D7A54",
"(  c #86775B",
")  c #9A7657",
"_  c #927D56",
"`  c #A46345",
"'  c #A96647",
"]  c #A5644C",
"[  c #A96B4A",
"{  c #B66D4A",
"}  c #A4734F",
"|  c #A37A4E",
" . c #A76957",
".. c #B26856",
"X. c #A57452",
"o. c #A87651",
"O. c #A77958",
"+. c #B67A55",
"@. c #877A66",
"#. c #9B7A6C",
"$. c #817D76",
"%. c #807E7D",
"&. c #A77A66",
"*. c #B97466",
"=. c #BA7C72",
"-. c #C95A4A",
";. c #C76659",
":. c #CF7259",
">. c #C96A68",
",. c #DA6E68",
"<. c #C67B67",
"1. c #D8766A",
"2. c #C77B75",
"3. c #D97A72",
"4. c #EA756D",
"5. c #EA7C7A",
"6. c #98834D",
"7. c #978355",
"8. c #9A8556",
"9. c #9E8A53",
"0. c #988459",
"q. c #A38D52",
"w. c #A38856",
"e. c #BB845F",
"r. c #A59053",
"t. c #998B6C",
"y. c #89837A",
"u. c #958978",
"i. c #A78569",
"p. c #B6866A",
"a. c #A4926D",
"s. c #AC8878",
"d. c #B88A79",
"f. c #A89678",
"g. c #B6957E",
"h. c #CD805F",
"j. c #CB8669",
"k. c #C7877B",
"l. c #D78D74",
"z. c #D78A78",
"x. c #C7967A",
"c. c #EE837D",
"v. c #7C7D82",
"b. c #898786",
"n. c #928E87",
"m. c #98948D",
"M. c #8C8C90",
"N. c #939394",
"B. c #9B9997",
"V. c #9D9D9D",
"C. c #B79986",
"Z. c #B0978F",
"A. c #B9A085",
"S. c #BCA389",
"D. c #A8A49D",
"F. c #A5A5A4",
"G. c #AAA8A6",
"H. c #ACACAC",
"J. c #B7B4AA",
"K. c #B4B4B4",
"L. c #BAB8B4",
"P. c #BABABA",
"I. c #D88884",
"U. c #CA908B",
"Y. c #C79C88",
"T. c #D79688",
"R. c #D79B96",
"E. c #ED8381",
"W. c #F98685",
"Q. c #F68988",
"!. c #FE8A8A",
"~. c #F3918D",
"^. c #E89896",
"/. c #F89594",
"(. c #F39E9D",
"). c #FD9C9C",
"_. c #C9A58C",
"`. c #C5A88E",
"'. c #D4A288",
"]. c #C7A996",
"[. c #D7A996",
"{. c #CCB39B",
"}. c #CAB49B",
"|. c #D1B69F",
" X c #E5A399",
".X c #FDA09F",
"XX c #E1B19E",
"oX c #D5ABA4",
"OX c #C1B9A8",
"+X c #D3BBA3",
"@X c #D5B2A8",
"#X c #DDB9B5",
"$X c #E8AAA4",
"%X c #EBAEAC",
"&X c #FCA5A5",
"*X c #FEAAAA",
"=X c #E3B7AA",
"-X c #F3B2AB",
";X c #E7BDBA",
":X c #F4B5B4",
">X c #F7B9B7",
",X c #FDBDBD",
"<X c #CCC1A4",
"1X c #DCC4AD",
"2X c #C4C1B8",
"3X c #DFC8B0",
"4X c #E0C8B0",
"5X c #EBC2BC",
"6X c #FFBFC0",
"7X c #C4C3C3",
"8X c #CCCCCC",
"9X c #DACECB",
"0X c #D3D3D3",
"qX c #DCDCDC",
"wX c #EAC5C4",
"eX c #FFC1C2",
"rX c #F6CAC7",
"tX c #F3CCCA",
"yX c #F4D5D3",
"uX c #FDD5D5",
"iX c #FED7D8",
"pX c #FFD9D9",
"aX c #E2E2DF",
"sX c #E4E4E4",
"dX c #ECEDED",
"fX c #F8E9E9",
"gX c #F5F5F5",
"hX c #F7F8F8",
"jX c #FBFBFC",
/* pixels */
"!.!.W.-.A ,.,.S c.!.W.I S F ,.).*X^.I ..*X,X,X,XT.[ ' ' { l.,X,XrXpXrXp.o.o.",
"5.,.W.-.A ,.,.S 5.!.5.F F :./.&XI.P D ..>X,X,X$X..' ' { h.-X,XeXuXuX[.o.o.+.",
"5.;.5.G A ;.1.S ;.!.E.I :./.*X(.P D ] R.6X,X:X*.' { :.l.-X,XeXuXpX=XO.o.+.j.",
"W.E.!.4.G -.W.;.L ~.~.1.).*X(.*.D *.$XeX,X,Xz.:.j.l.-X,X,X,XrXpXrXp.o.e.'.5X",
"!.!.!.!.,.-.c.Q...<.)..X&X(...Z =.:X:XR.>X,X$X-X>X,X6X>X>XrXuXuXx.O.x.5XuXpX",
"!.!.!.!.W.4.c./.~.] 2.(.&X*.Z =.>X:XK , %X,X,X,X,X,XT.l.>XuXuX_.O.[.5XuXiXuX",
"!.!.W.!.!.!./././.I.P P *.P ] %XeXU.C C R.5X,X,X>XT.j.-XuXuX=XY.Y.@XuXiXuXiX",
"W.W.5.,.~.).).I.2.&X^...D D k.eXeXC.] ] R.,X,X,XR.T.>XuXpXuX[.p.x.rXpXuXuXpX",
">.3./.3.;.E.&X&X(.z.(.2.P ` *.>XZ.c Q k #.>X,X>X>XeXuXuXpX5Xp.'.rXpXpXpXpXfX",
"Q.~.~.).z.I <.&X*X1...] J ` K &.4 2 h f 2 s.T. X;XtXuXuXuX'.[.uXpXtX].[.3X<X",
"/.1.L *.^.3.P ;.z.z.K Z J ` Z J v 4 3 6 3 8 T.wXs.#.wXpX5X=XuXpXtXg.X.w.9.f.",
"/.~.^.*.P I.P C C ] T Z ` ' Z C H 3 > 6 < Q #XZ.&.) @XuXuXpXpXwXi.| w.a.J.qX",
").&X*X(.2.&. .J J Z Z ` ` ' T J 7 C 6 C 5 U ) Q #.&.p.oXiXyXoXi.) a.J.qXaX0X",
"&X^.(.*X,X,X>X%XR. .` ` J K ' ' T h h h U o.o.X.! ! &.#.C.p.W 8.2XqXsXqX0X8X",
"^.>.(.,X,X,XeXeXeX%X*.` ` ` [ [ T 6 7 6 H X.X.X.X.} ! Q U W 9.f.sXsX0X8X8XP.",
"&X^.>X,X,X-XT.^. X,X$X] ' [ o.T T } X.&.].;X5X5X#Xg.) E W 8._ L.qX0X8X7XP.P.",
"*X,X>X>X,Xk.' <. X,XR.] [ o.O.d.C.].oXwXpXpXpXpXpXfXOX8.0._ t.7X8X8XP.P.P.P.",
">X:Xz.R.%X+.j.:X,X,Xd.[ o.o.i.tXuXpXpXpXuXuXpXfXdXdXdXL.@.^ ~ ( u.G.P.P.P.P.",
",X:XI. X<.j.>X6X,XeXd.} o.o.d.uXiXuXpXtXoXfXgXdXsXsXqX0XD.x b b l b B.P.P.P.",
",X,X$X<.<.-X:X:X>XtXs.} o.} C.iXuXpXfXaX9XdXsXsXqX0X8X8X7X@.n.H.y.z v y.n.G.",
"$Xk.j.l.-X,XI.oXXX;XO.} T } ].pXpXfXhXgXdXsXsX0X8X8X7XP.P.F.B.P.L.F.B.B.V.G.",
"T.$X>XR.>XeXoXd.[.oXo.X.T ) wXfXhXhXgXsXsXqX0X8X7XP.P.P.P.P.P.P.P.P.P.P.P.P.",
",XeX%Xk.>XuXtXx.5XY.| o.| f.gXhXhXdXsXsXqX0X8XP.P.P.P.P.P.P.P.P.L.L.P.P.P.P.",
"%X,X,X,XuXpXrX=XuXC.| O.w.OXhXhXdXsXsX0X8X7XP.P.P.P.P.P.P.P.P.P.L.K.P.P.K.K.",
"s.Y.>XwX@X@X#XtXuXd.w.q.9.qXhXdXsXqX0X8X7XP.P.P.P.P.P.P.L.H.P.P.P.P.L.L.F.N.",
"f.C.C.Z.C.S.C.].@Xw.q.r.w.aXdXsXqX0X8X7XP.P.P.P.P.P.P.P.P.L.P.P.P.P.H.b.s w ",
"S.`.`.S.`.`.`.{.a.q.r.r.q.2XsXqX8X8X7XP.P.P.P.P.P.P.P.P.P.P.P.K.L.P.L.s . . ",
"`.`.`.`.S.C.+X4Xf.q.r.r.9.u.0X0X8XP.P.P.L.L.P.P.P.P.P.L.G.L.P.K.K.F.H.B.q . ",
"`.`.`.`.C.g.3X+Xw.r.r.q.0./ Z.7XP.P.P.P.F.H.P.P.L.H.P.L.H.L.H.L.H.P.F.G.v.s ",
"`.C.`.+X+X+X4X+X7.9.r.9._ ~ ( H.V.L.P.P.L.L.P.P.P.L.L.P.P.F.K.F.N.H.K.V.K.H.",
"C.p._.3X4X4X4X+X/ W 9.0.^ R b F.F.V.K.P.P.P.P.P.P.P.F.K.P.F.F.a 9 B N.r n s ",
"{.Y.].4X4X4X4X}.9.r.9./ ~ R g m a & B P.P.N.n n M.K.L.L.V.K.V 0 9 q a O . . ",
"3X1X4X4X3X3X4X}.9.q.0.^ ~ l = . . . $ m V 0 O 9 w V.K.P.M.s 9 $ $ . . + $ + ",
"4X4X1X4X3X3X4X].E E x l l 8 # + + + + . . . $ 0 $ b.F.K.B . & $ + $ $ + $ + ",
"4X{.C.4X4X4X+Xa.E 7.~ Y z f # + + + + + $ $ + . . w n a $ X $ $ + & $ + + $ ",
"4X|.].4X3X4Xg.6.6.7.^ x x l * X $ + + + + + + + X . . . $ $ X + + + + + $ 9 ",
"4X4X4X4X4X|.w.q.W / R x z g * X $ + + + + + + + & $ + + + + + $ $ + + $ + $ ",
"4X4X4X4X1Xa.W W Y x l l 1 % # + + + + + + + + + $ $ $ $ + + + $ + + + $ + + ",
"4X4X4X4X}.8.9.6.R x x g # X + + + + $ 9 $ + + + . X $ & + + + + + + + + + + ",
"4X4X1X4XA.9.r.8./ R x f # $ + + + + + $ + + $ $ . X + X + + + + $ $ + + $ + ",
"4X1XC.}.S.9.9._ ^ R x 8 # $ $ + + + + + + X + + + $ + + $ + + + & $ + O O + ",
"4X1X}.1X].9.7.x l g z 3 . + + + + + + + + & $ + + $ + + $ + + + + $ $ & q . ",
"4X4X4X1Xf.9.0.^ Y l 5 * X + + & $ + + + + $ $ + $ w w & + + + + + + + $ $ + ",
"4X4X4XC.E 9._ ~ x f # X + + + $ $ + + + + + + $ e f f t % $ + + + + + $ + + ",
"4X4X4XC.E _ x R x g # $ + + + + + + + + + + X & u Q  .f * + + $ + + + $ + + ",
"4X4X1Xf.7.R g l l g # $ + + + + + + + + + + $ $ t h h u & + + $ $ $ + + + + ",
"4X1XS.E / ^ x l l 3 . + + + + + + + + X + + + + & e t = $ + + + $ & + + $ + ",
"1Xt.l l / R x x x = X + + + $ + + + $ & + + X X + $ $ $ + $ $ + + + + + $ + ",
"`.7.^ / ~ Y x x x = X + + + + + + + $ w $ $ = $ X # $ X X $ + + + . . + + + ",
"8.0.0.Y g g l z l = X + + + + + + + + . + # M i # t t = $ $ + + . 9 0 . + + ",
"9.0./ R x l g 8 5 # + + + + + $ & + + + $ . y c = @.t.v # + $ + + $ & + + + ",
"0._ ~ x x x x x 1 . + + + $ $ $ $ + + + $ + $ p 3 S.`.t.% $ & X + . . . $ $ ",
"_ ^ R x x x x l = . . O . . + + + + X . X + #   < v f.j = . + $ + 9 w 9 9 0 ",
"/ R x x x x l 3 $ w a a a 0 $ + $ $ $ a $ + $ # : 5 v 1 # . $ $ $ B 7XP.K.7X",
"~ x x x l 8 = # & V.7X8X8XG.0 O 9 q a N.n . $ $   , < ;   . $ $ + w F.sXqX0X",
"Y x x 8 4 1 . O a n.sXdXhXdXn . . 9 V p N n & X   ; - - : # X $ # y G.sXhXdX",
"x x x 8 8 * . $ m y.8XjXjXjXN.$ $ d c j j y.a .   ; - - 5 d $ + a N b.2XqXsX",
"x x l g g # . % b.m.%.B.b.N.M.& a V c M c M V 9   ; - ; o j i O = u 5 j @.c ",
"x x z 8 5 # + # t M p p c u = $ m V %.$.b.m.b.d > ; - ; 5 B $.N y.b.N p v 5 ",
"x x x l 3 O . # 3 j u v @.v = O # i $.B.V.G.L.H.M > : ; v P.P.P.P.P.P.F.m.v ",
"x x x x g @ u $.u.n.m.K.P.J.y.y 0 b.P.P.P.P.P.K.B.j j f M.G.P.P.P.P.L.H.P.L.",
"x x x x l f D.P.P.P.P.P.P.P.P.K.H.P.P.P.P.H.B.F.G.j N j K.L.H.H.P.L.G.H.P.P.",
"x x x x x f $.F.P.P.P.P.P.P.P.P.P.P.K.L.L.G.F.H.N.u N.u n.L.L.K.H.G.K.P.P.P.",
"@.u.( x l 8 M H.P.P.P.P.P.P.P.P.H.L.H.L.P.P.P.K.V %.H.%.b.F.P.P.P.P.P.P.P.P."
};
